<svg width="32" height="32" viewBox="0 0 32 32" fill="none" xmlns="http://www.w3.org/2000/svg">
<g clip-path="url(#clip0)">
<path d="M16.0019 31.9999C24.8384 31.9999 32.0018 24.8365 32.0018 15.9999C32.0018 7.16342 24.8384 0 16.0019 0C7.16537 0 0.00195312 7.16342 0.00195312 15.9999C0.00195312 24.8365 7.16537 31.9999 16.0019 31.9999Z" fill="white"/>
<path d="M22.6902 6.8418H9.30991C7.94685 6.8418 6.8418 7.94679 6.8418 9.30991V22.6902C6.8418 24.0534 7.94679 25.1583 9.30991 25.1583H15.9089L15.9203 18.6132H14.2197C13.9987 18.6132 13.8193 18.4344 13.8186 18.2134L13.8103 16.1035C13.8094 15.8814 13.9895 15.7008 14.2115 15.7008H15.9091V13.6621C15.9091 11.2964 17.354 10.0082 19.4644 10.0082H21.1962C21.4177 10.0082 21.5975 10.1878 21.5975 10.4095V12.1884C21.5975 12.41 21.4179 12.5896 21.1965 12.5896L20.1336 12.5903C18.9859 12.5903 18.7636 13.1356 18.7636 13.9361V15.701H21.2855C21.526 15.701 21.7124 15.9109 21.6839 16.1493L21.4339 18.2593C21.4101 18.4613 21.2387 18.6133 21.0354 18.6133H18.7749L18.7635 25.1587H22.6901C24.0532 25.1587 25.1582 24.0535 25.1582 22.6905V9.30991C25.1583 7.94685 24.0532 6.8418 22.6902 6.8418Z" fill="black"/>
<path d="M15.9091 25.1584L15.9206 18.6133H15.8926V25.1584H15.9091Z" fill="#333333"/>
</g>
<defs>
<clipPath id="clip0">
<rect width="32" height="32" fill="white"/>
</clipPath>
</defs>
</svg>
