<svg width="32" height="32" viewBox="0 0 32 32" fill="none" xmlns="http://www.w3.org/2000/svg">
<path d="M16 32C24.8366 32 32 24.8366 32 16C32 7.16344 24.8366 0 16 0C7.16344 0 0 7.16344 0 16C0 24.8366 7.16344 32 16 32Z" fill="white"/>
<path d="M24.8672 10.1541C24.4601 10.3347 24.0378 10.4771 23.6042 10.5801C24.082 10.1263 24.4411 9.55846 24.6436 8.92484C24.7015 8.74402 24.505 8.58746 24.3416 8.68434C23.7385 9.04215 23.0889 9.31034 22.4108 9.48196C22.3715 9.49196 22.331 9.49696 22.2902 9.49696C22.1665 9.49696 22.0467 9.45115 21.952 9.3679C21.2306 8.73202 20.3026 8.38184 19.3392 8.38184C18.9222 8.38184 18.5014 8.44684 18.0882 8.57502C16.8078 8.97209 15.8198 10.0284 15.5096 11.3315C15.3934 11.8201 15.362 12.3095 15.4161 12.7855C15.4222 12.8402 15.3965 12.8783 15.3806 12.8962C15.3525 12.9276 15.3128 12.9456 15.2715 12.9456C15.267 12.9456 15.2621 12.9455 15.2575 12.945C12.4546 12.6845 9.92708 11.3343 8.1407 9.14271C8.04976 9.0309 7.87489 9.04465 7.80226 9.16909C7.45251 9.76946 7.26764 10.4559 7.26764 11.1545C7.26764 12.2249 7.69789 13.2338 8.44495 13.9694C8.13076 13.8948 7.82664 13.7775 7.54408 13.6205C7.40733 13.5446 7.23926 13.6424 7.23733 13.7987C7.21795 15.389 8.14908 16.8041 9.54389 17.4413C9.51576 17.442 9.48764 17.4422 9.45951 17.4422C9.23845 17.4422 9.01445 17.4211 8.7942 17.3788C8.64026 17.3496 8.51095 17.4955 8.5587 17.6446C9.01158 19.0582 10.2285 20.1001 11.685 20.3365C10.4763 21.1479 9.06858 21.5758 7.60364 21.5758L7.14701 21.5756C7.00608 21.5756 6.88701 21.6675 6.85139 21.8038C6.81608 21.9378 6.88101 22.0796 7.00114 22.1494C8.65189 23.1101 10.535 23.6178 12.4473 23.6178C14.1213 23.6178 15.6871 23.2858 17.1014 22.6305C18.3979 22.0299 19.5436 21.1714 20.5068 20.0788C21.4041 19.0609 22.1056 17.886 22.5921 16.5863C23.0557 15.3478 23.3008 14.0259 23.3008 12.7642V12.704C23.3008 12.5014 23.3924 12.3108 23.5523 12.1808C24.159 11.6882 24.6873 11.1085 25.1224 10.4576C25.2374 10.2858 25.0562 10.0703 24.8672 10.1541Z" fill="black"/>
</svg>
