<svg width="32" height="32" viewBox="0 0 32 32" fill="none" xmlns="http://www.w3.org/2000/svg">
<path d="M16 32C24.8366 32 32 24.8366 32 16C32 7.16344 24.8366 0 16 0C7.16344 0 0 7.16344 0 16C0 24.8366 7.16344 32 16 32Z" fill="white"/>
<path d="M21.3531 9.52051H10.647C8.5465 9.52051 6.84375 11.2233 6.84375 13.3238V18.6758C6.84375 20.7763 8.54656 22.479 10.647 22.479H21.3531C23.4536 22.479 25.1564 20.7762 25.1564 18.6758V13.3238C25.1564 11.2233 23.4536 9.52051 21.3531 9.52051ZM18.7809 16.2601L13.7734 18.6484C13.6399 18.7121 13.4857 18.6149 13.4857 18.4671V13.5412C13.4857 13.3912 13.644 13.294 13.7776 13.3618L18.7851 15.8994C18.9343 15.9748 18.9316 16.1884 18.7809 16.2601Z" fill="black"/>
</svg>
